<svg width="24" height="24" viewBox="0 0 24 24" fill="none" xmlns="http://www.w3.org/2000/svg">
<circle cx="12" cy="12" r="12" fill="#A3C4A2"/>
<path d="M8.774 16.6836V8.28359H12.71C13.718 8.28359 14.486 8.48359 15.014 8.88359C15.542 9.27559 15.806 9.80359 15.806 10.4676C15.806 10.9156 15.702 11.2996 15.494 11.6196C15.286 11.9316 15.006 12.1756 14.654 12.3516C14.31 12.5196 13.934 12.6036 13.526 12.6036L13.742 12.1716C14.214 12.1716 14.638 12.2596 15.014 12.4356C15.39 12.6036 15.686 12.8516 15.902 13.1796C16.126 13.5076 16.238 13.9156 16.238 14.4036C16.238 15.1236 15.962 15.6836 15.41 16.0836C14.858 16.4836 14.038 16.6836 12.95 16.6836H8.774ZM10.334 15.4596H12.854C13.438 15.4596 13.886 15.3636 14.198 15.1716C14.51 14.9796 14.666 14.6716 14.666 14.2476C14.666 13.8316 14.51 13.5276 14.198 13.3356C13.886 13.1356 13.438 13.0356 12.854 13.0356H10.214V11.8236H12.542C13.086 11.8236 13.502 11.7276 13.79 11.5356C14.086 11.3436 14.234 11.0556 14.234 10.6716C14.234 10.2796 14.086 9.98759 13.79 9.79559C13.502 9.60359 13.086 9.50759 12.542 9.50759H10.334V15.4596Z" fill="white"/>
</svg>
