<svg width="18" height="18" viewBox="0 0 18 18" fill="none" xmlns="http://www.w3.org/2000/svg">
<path d="M8.99998 10.4051L2.23585 17.1692C2.05125 17.3538 1.8192 17.4482 1.53972 17.4525C1.26025 17.4568 1.02394 17.3624 0.830782 17.1692C0.637604 16.976 0.541016 16.7418 0.541016 16.4666C0.541016 16.1914 0.637604 15.9573 0.830782 15.7641L7.59488 8.99998L0.830782 2.23585C0.64616 2.05125 0.551715 1.8192 0.547449 1.53972C0.54316 1.26025 0.637604 1.02394 0.830782 0.830782C1.02394 0.637604 1.25812 0.541016 1.53332 0.541016C1.80852 0.541016 2.04269 0.637604 2.23585 0.830782L8.99998 7.59488L15.7641 0.830782C15.9487 0.64616 16.1808 0.551715 16.4602 0.547449C16.7397 0.54316 16.976 0.637604 17.1692 0.830782C17.3624 1.02394 17.4589 1.25812 17.4589 1.53332C17.4589 1.80852 17.3624 2.04269 17.1692 2.23585L10.4051 8.99998L17.1692 15.7641C17.3538 15.9487 17.4482 16.1808 17.4525 16.4602C17.4568 16.7397 17.3624 16.976 17.1692 17.1692C16.976 17.3624 16.7418 17.4589 16.4666 17.4589C16.1914 17.4589 15.9573 17.3624 15.7641 17.1692L8.99998 10.4051Z" fill="#333236"/>
</svg>
